<svg viewBox="0 0 13 22" preserveAspectRatio="none">
    <path fill-rule="evenodd" clip-rule="evenodd" d="M3.10699 0.800053L12.6971 10.2782C12.7931 10.3723 12.8693 10.4847 12.9214 10.6086C12.9734 10.7326 13.0002 10.8657 13.0002 11.0002C13.0002 11.1346 12.9734 11.2677 12.9214 11.3917C12.8693 11.5156 12.7931 11.628 12.6971 11.7221L3.10698 21.2003C2.82458 21.4775 2.44465 21.6328 2.0489 21.6328C1.65316 21.6328 1.27323 21.4775 0.990823 21.2003C0.406805 20.6225 0.406805 19.6857 0.990824 19.109L9.19302 11.0002L0.98875 2.89235C0.405768 2.31456 0.405768 1.37785 0.98875 0.800053C1.27115 0.522816 1.65109 0.367493 2.04683 0.367493C2.44257 0.367493 2.82251 0.522816 3.10491 0.800053"/>
</svg>
