<svg viewBox="0 0 44 42" preserveAspectRatio="none" stroke="black">
    <path d="M32.6354 23.1349L12.7814 3.83492C12.4951 3.55659 12.1549 3.33976 11.7817 3.19776C11.4085 3.05576 11.0102 2.99159 10.6113 3.0092C10.2124 3.0268 9.82133 3.12582 9.4621 3.30015C9.10287 3.47448 8.78309 3.72044 8.52242 4.02292C7.97172 4.66246 7.68405 5.48706 7.71746 6.33037C7.75086 7.17368 8.10285 7.97294 8.70242 8.56692L18.7264 18.4969" stroke-width="4" stroke-linecap="round"/>
    <path d="M18.7253 18.497L7.81331 7.67604C7.18953 7.05757 6.35526 6.69739 5.47736 6.66754C4.59946 6.63769 3.74266 6.94037 3.07831 7.51504C2.76504 7.78605 2.51063 8.11838 2.33077 8.49152C2.15091 8.86466 2.04941 9.2707 2.03254 9.68459C2.01568 10.0985 2.0838 10.5114 2.2327 10.898C2.3816 11.2845 2.60813 11.6364 2.89831 11.932L13.8913 23.135" stroke-width="4" stroke-linecap="round" stroke-linejoin="round"/>
    <path d="M13.8903 23.135L7.63532 17.021C7.02858 16.4014 6.20228 16.0457 5.33523 16.0307C4.46817 16.0157 3.63008 16.3427 3.00232 16.941C2.69355 17.2353 2.44609 17.5878 2.27418 17.9782C2.10227 18.3686 2.00931 18.7892 2.00066 19.2156C1.99202 19.6421 2.06786 20.0661 2.22381 20.4631C2.37976 20.8602 2.61274 21.2224 2.90932 21.529C12.1393 31.065 16.9293 35.569 18.7263 37.074C21.6353 39.511 27.3703 40.521 30.3653 38.521C33.3603 36.521 36.0673 33.675 37.3523 30.85C38.1173 29.167 39.6023 23.98 41.8103 15.289C41.9187 14.8624 41.9407 14.4185 41.8752 13.9833C41.8097 13.5481 41.6579 13.1304 41.4288 12.7546C41.1996 12.3788 40.8977 12.0526 40.5408 11.7951C40.1839 11.5376 39.7792 11.354 39.3503 11.255C38.4683 11.0511 37.5416 11.1969 36.7648 11.6618C35.988 12.1266 35.4215 12.8744 35.1843 13.748L32.6353 23.135M29.3513 9.187C27.2048 5.98223 24.1604 3.48215 20.5993 2M2.82932 30.297C4.80528 33.6096 7.71476 36.2655 11.1933 37.932" stroke-width="4" stroke-linecap="round"/>
</svg>
