<svg viewBox="0 0 26 30" preserveAspectRatio="none">
    <path d="M25.1679 23.1621L17.334 12.5089V2.14286H19.5008V0H6.50029V2.14286H8.66704V12.5089L0.833147 23.1621C0.360615 23.8044 0.0769629 24.5634 0.013579 25.3552C-0.049805 26.1471 0.10955 26.9408 0.47401 27.6486C0.838471 28.3564 1.39383 28.9506 2.07863 29.3657C2.76343 29.7807 3.55097 30.0002 4.35412 30H21.6459C22.449 30.0002 23.2366 29.7807 23.9214 29.3657C24.6062 28.9506 25.1615 28.3564 25.526 27.6486C25.8905 26.9408 26.0498 26.1471 25.9864 25.3552C25.923 24.5634 25.6394 23.8044 25.1669 23.1621H25.1679ZM10.8338 13.2054V2.14286H15.1673V13.2054L18.0632 17.1429H7.93793L10.8338 13.2054ZM21.647 27.8571H4.3552C3.95196 27.8567 3.55668 27.7461 3.21298 27.5375C2.86929 27.329 2.59055 27.0305 2.40753 26.6752C2.22451 26.3198 2.14433 25.9214 2.17583 25.5238C2.20733 25.1262 2.34929 24.745 2.58605 24.4221L6.3627 19.2857H19.6384L23.4161 24.4221C23.6529 24.745 23.7948 25.1262 23.8263 25.5238C23.8578 25.9214 23.7777 26.3198 23.5946 26.6752C23.4116 27.0305 23.1329 27.329 22.7892 27.5375C22.4455 27.7461 22.0502 27.8567 21.647 27.8571Z" fill="black"/>
</svg>
