<svg viewBox="0 0 32 30" preserveAspectRatio="none">
    <path d="M3.2 30C2.32 30 1.5664 29.6905 0.939202 29.0716C0.312002 28.4526 -0.00106395 27.7095 2.71647e-06 26.8421V9.47369C2.71647e-06 8.60526 0.313603 7.86158 0.940803 7.24263C1.568 6.62369 2.32107 6.31474 3.2 6.31579H9.6V3.1579C9.6 2.28948 9.9136 1.54579 10.5408 0.926844C11.168 0.307897 11.9211 -0.00104995 12.8 2.68073e-06H19.2C20.08 2.68073e-06 20.8336 0.309476 21.4608 0.928424C22.088 1.54737 22.4011 2.29053 22.4 3.1579V6.31579H28.8C29.68 6.31579 30.4336 6.62526 31.0608 7.24421C31.688 7.86316 32.0011 8.60632 32 9.47369V26.8421C32 27.7105 31.6864 28.4542 31.0592 29.0732C30.432 29.6921 29.6789 30.001 28.8 30H3.2ZM12.8 6.31579H19.2V3.1579H12.8V6.31579Z"/>
</svg>
