<svg viewBox="0 0 31 30" preserveAspectRatio="none">
    <path d="M29.2397 0L23.2759 1.18063L27.4338 6.53885L30.4233 5.9334L29.2397 0ZM18.8144 2.05853L15.8249 2.64884L19.998 7.99193L22.9724 7.40162L18.8144 2.05853ZM11.3786 3.5116L8.38905 4.13219L12.5622 9.47528L15.5365 8.88496L11.3786 3.5116ZM3.92756 5.02523L2.4404 5.31282C1.65187 5.46996 0.958094 5.9328 0.511397 6.5997C0.0647005 7.26661 -0.098402 8.08308 0.0579022 8.86983L0.649732 11.8365L8.08555 10.3683L3.92756 5.02523ZM0.649732 11.8365V26.9728C0.649732 27.7756 0.969493 28.5456 1.53867 29.1133C2.10785 29.6811 2.87982 30 3.68476 30H27.965C29.6494 30 31 28.6529 31 26.9728V11.8365H0.649732Z" fill="black"/>
</svg>
