<svg viewBox="0 0 31 30" preserveAspectRatio="none">
    <path d="M6.37577 25.5009L4.27014 1.875H27.4151L25.3067 25.4972L15.8286 28.125L6.37577 25.5009Z" fill="#1572B6"/>
    <path d="M15.8427 26.1168L23.502 23.9934L25.3039 3.80713H15.8427V26.1168Z" fill="#33A9DC"/>
    <path d="M15.8427 12.3665H19.677L19.9414 9.39928H15.8427V6.50146H23.1083L23.0389 7.27865L22.3273 15.2643H15.8427V12.3665Z" fill="white"/>
    <path d="M15.8604 19.892L15.8473 19.8957L12.6204 19.0238L12.4142 16.7129H9.50513L9.91106 21.2626L15.8464 22.9107L15.8604 22.907V19.892Z" fill="#EBEBEB"/>
    <path d="M19.4304 15.1416L19.0817 19.0219L15.8501 19.8938V22.9088L21.7901 21.2625L21.8342 20.7732L22.3376 15.1416H19.4304Z" fill="white"/>
    <path d="M15.8529 6.50146V9.39928H8.85356L8.79543 8.74772L8.66325 7.27865L8.59387 6.50146H15.8529ZM15.8426 12.3665V15.2643H12.6561L12.5979 14.6127L12.4667 13.1437L12.3973 12.3665H15.8426Z" fill="#EBEBEB"/>
</svg>
