<svg viewBox="0 0 31 30" preserveAspectRatio="none">
    <g clip-path="url(#clip0_83_229)">
        <path d="M9.1383 13.4824C8.46142 13.8117 6.67017 15.2941 6.32517 15.7333C5.96689 16.1725 5.86072 15.4862 6.2322 14.3471C6.52408 13.4275 7.26728 12.1785 8.51455 11.108C9.24423 10.4904 10.8499 9.59831 11.8317 9.07678C12.0308 8.96688 14.605 7.84154 16.9006 7.2788C17.0996 7.22385 16.6617 7.62191 16.5953 7.84154C16.2503 8.88462 9.36369 13.3589 9.36369 13.3589L9.1383 13.4824ZM18.8378 26.068C18.9572 26.8091 18.8511 26.864 18.1081 26.9601C17.365 27.0563 16.821 26.7679 16.622 26.5758C16.4228 26.3835 16.3831 25.9582 16.5821 25.5739C16.7017 25.3269 16.821 25.2445 16.8874 24.9426C16.9537 24.6544 17.0068 24.5857 17.0599 24.476C17.1129 24.3798 17.1263 24.2836 17.1395 23.6112C17.1527 22.9388 17.1395 21.676 17.2059 21.1409C17.2723 20.5918 19.5677 21.3878 19.5677 21.3878C19.5677 21.3878 19.0237 22.7877 18.8777 23.1308C18.7318 23.474 18.7451 24.1328 18.7451 24.27C18.7451 24.4073 18.692 24.6817 18.6521 24.6954C18.6124 24.7092 18.7849 25.066 18.7052 25.2719C18.6521 25.4641 18.8246 25.9582 18.8378 26.068ZM19.7136 5.08284C19.6339 4.5613 19.7136 3.53181 19.8198 3.36728C20.1515 2.90053 21.903 2.84567 22.2745 3.39468C22.4338 3.64171 22.4205 4.21811 22.394 4.5887C22.3674 4.95928 22.2745 5.75532 22.2613 6.01617C22.2481 6.20833 20.324 6.51015 19.8994 5.9887C19.7799 5.85148 19.7136 5.08284 19.7136 5.08284ZM23.6147 24.7366C24.4242 25.3406 25.0477 25.4504 25.4591 25.6699C25.8704 25.8896 25.7643 26.3151 25.0743 26.4386C24.517 26.5484 23.6413 26.3287 23.0574 26.3287C22.4736 26.3287 21.1732 26.3974 20.8282 26.1504C20.4302 25.8622 20.6026 25.3269 20.6026 25.3269C20.7088 25.025 20.9741 24.3523 20.8945 23.8034C20.8149 23.2545 20.7087 22.9525 20.5097 22.4447C20.3106 21.9369 20.1648 20.6879 20.3506 20.6192C20.5363 20.5506 20.4832 20.6192 20.722 20.6742C20.9609 20.729 21.2263 20.8114 21.7438 20.8114C22.2613 20.8114 22.8318 20.729 23.0309 20.6878C23.2299 20.6467 23.3892 20.6054 23.3227 21.031C23.2564 21.4564 23.0574 22.2525 23.0442 22.8702C23.0309 23.4878 23.0309 24.2015 23.0707 24.3249C23.1105 24.4485 23.4024 24.5857 23.6147 24.7367V24.7366Z" fill="black"/>
        <path d="M20.7752 6.4552C19.3156 7.75912 16.4892 8.11581 12.2963 9.79031C11.2215 10.2158 8.35541 11.4921 7.66541 12.8235C9.98744 11.4373 10.8499 13.3451 11.0357 15.3076C11.2081 17.1468 12.0972 18.1076 14.3795 18.0525C16.7281 17.9977 17.4446 19.4113 18.0948 21.0721C19.3553 14.7174 21.3723 13.4823 22.6726 12.3981C25.4326 10.0785 22.0357 5.98853 20.7752 6.4552Z" fill="#88CE02"/>
        <path d="M20.7752 6.45524C17.2721 7.71787 13.8089 8.0335 9.73535 10.6274C8.76676 11.2451 6.72332 12.645 6.3252 15.3213C7.81129 13.6194 11.2479 11.4784 15.4543 10.1197C17.5773 9.43342 19.1298 8.98057 21.014 8.22558C20.8814 7.3472 20.8814 7.00409 20.7752 6.45508V6.45524Z" fill="#88CE02"/>
        <path d="M25.2469 13.9765C25.2469 13.9765 24.9947 14.8686 24.4905 15.1569C24.4905 15.1569 24.119 15.2941 23.376 14.8687C23.1637 14.7452 23.0044 14.3197 23.0176 14.1824C23.0309 13.853 23.23 13.702 23.23 13.702C23.23 13.702 23.4423 13.3314 23.6944 13.3452C23.9465 13.3589 24.3712 13.4 24.5039 13.2765C24.6232 13.1393 25.2734 13.5235 25.2469 13.9765ZM19.8331 5.34364C19.8331 5.34364 19.7801 6.0436 19.6872 6.4828C19.6739 6.56522 19.2758 6.60627 18.9839 6.72983C19.5412 8.37678 22.8983 8.36304 23.3362 7.55326C23.1239 7.40239 22.6993 7.16902 22.5003 7.08668C22.3012 7.00425 22.3144 7.01799 22.3012 6.63375C22.2879 6.24942 22.2613 5.53581 22.2347 5.34364C22.2082 5.1514 20.1515 5.1514 19.8331 5.34364Z" fill="black"/>
        <path d="M19.9657 5.34365C19.9657 5.34365 19.9657 5.74163 19.9258 6.12588C19.9127 6.30438 19.8994 6.41412 19.8728 6.55133C19.8596 6.63376 20.324 6.96305 20.4567 7.69048C21.0936 9.15901 22.5665 8.43165 23.1768 7.7317C22.9646 7.58066 22.6196 7.37485 22.2215 7.21016C22.0224 7.12774 22.1153 6.94939 22.1021 6.56515C22.0888 6.18083 22.0357 5.61808 22.0092 5.41218C21.9826 5.20636 20.2842 5.15141 19.9657 5.34365Z" fill="#EFEFEF"/>
        <path d="M19.8331 5.34364C19.8331 5.34364 19.8198 5.59067 19.78 5.87892C19.9525 6.05726 20.1781 6.30437 20.3507 6.45532C20.47 6.56522 20.7619 6.55148 21.0274 6.55148C21.2662 6.55148 21.4785 6.57888 21.5714 6.52401C21.7838 6.41411 22.0889 6.13969 22.2614 5.93379C22.2482 5.68676 22.2349 5.45346 22.2217 5.34364C22.2082 5.1514 20.1515 5.1514 19.8331 5.34364Z" fill="black"/>
        <path d="M21.0405 6.38664C20.8812 6.38664 20.6954 6.3729 20.5495 6.34543C20.4831 6.33169 20.4168 6.29056 20.3637 6.26308C20.2708 6.1944 20.1779 6.11213 20.0719 6.02971C19.8595 5.86502 19.8463 5.76894 19.8463 5.72789C19.9392 4.86316 19.8197 4.13581 19.8197 4.13581C19.8197 4.13581 19.7268 3.76514 20.2311 3.66906C20.7353 3.57298 21.0404 3.55933 21.0404 3.55933C21.0404 3.55933 21.359 3.55933 21.8498 3.66906C22.3541 3.76523 22.2612 4.13581 22.2612 4.13581C22.2612 4.13581 22.1418 4.86316 22.2347 5.72789C22.2347 5.76894 22.2215 5.86502 22.0091 6.02971C21.8233 6.167 21.6774 6.31795 21.5315 6.34543C21.3854 6.3729 21.1997 6.38664 21.0405 6.38664Z" fill="black"/>
        <path d="M21.0406 3.20239C20.1648 3.20239 19.9923 3.44942 19.7402 3.72393C19.6871 3.79253 19.7269 4.20425 19.8199 5.08272H19.9393C19.9393 5.08272 19.8596 4.8356 19.8728 4.54736C19.8861 4.2592 19.9393 4.27294 19.8994 4.20425C19.8463 4.12183 19.7402 3.98461 19.9791 3.8474C20.2178 3.71019 20.5894 3.95722 21.0406 3.97096C21.4917 3.95722 21.8765 3.71019 22.1153 3.8474C22.3542 3.98461 22.248 4.12191 22.195 4.20425C22.1419 4.28668 22.2082 4.2592 22.2215 4.54736C22.2348 4.8356 22.1551 5.08272 22.1551 5.08272H22.2746C22.3542 4.20433 22.4072 3.82001 22.3675 3.75132C22.1418 3.44942 21.9163 3.21605 21.0406 3.20239ZM25.2468 14.0175C25.2468 14.0175 24.9947 14.8547 24.5039 15.1429C24.3976 15.088 24.4109 15.0057 24.3179 14.8822C24.2914 14.841 24.1986 14.8135 24.1588 14.7723C24.1189 14.7311 24.1322 14.6625 24.0658 14.6076C24.0128 14.5527 23.973 14.5939 23.9199 14.5527C23.8669 14.4979 23.8535 14.4292 23.8138 14.3882C23.7872 14.3607 23.6811 14.347 23.6546 14.3195C23.5882 14.2508 23.0044 14.1273 23.031 13.99C23.0839 13.7841 23.1902 13.6332 23.1902 13.6332C23.1902 13.6332 23.4423 13.2489 23.6943 13.2626C23.9464 13.2763 24.1853 13.3313 24.318 13.2077C24.464 13.0704 25.2868 13.5783 25.2468 14.0174V14.0175Z" fill="black"/>
        <path d="M23.5219 7.95131C23.5219 7.95131 24.3579 7.74542 24.9284 8.30816C25.499 8.88465 25.4591 9.59826 25.2867 10.0375C25.4326 10.2159 25.698 10.7099 25.499 11.3002C26.3748 12.0686 25.99 13.2491 25.2071 14.0314C25.2071 14.0314 25.0213 13.3177 24.2783 13.2765C24.3048 13.0021 23.5883 12.7824 23.92 12.0687C23.4158 11.9452 23.429 11.5883 23.3494 11.1491C23.283 10.7099 23.5219 7.95131 23.5219 7.95131Z" fill="black"/>
        <path d="M23.2167 8.33554C23.2167 8.33554 24.1853 7.82774 24.7559 8.40423C25.3265 8.98063 25.1672 9.6119 24.9947 10.0511C25.1407 10.2294 25.4857 10.7374 25.2733 11.3412C25.2335 11.4785 24.9416 11.4785 24.7293 11.8353C25.26 11.5195 25.5918 11.602 25.7112 11.9999C25.897 12.6176 25.4856 13.3587 25.1274 13.7704C25.1274 13.7567 25.1141 13.743 25.1141 13.7292C25.061 13.9352 24.9947 14.3331 24.5966 14.7723C24.3976 14.9919 24.2383 14.9646 24.0128 14.9096C23.7474 14.8409 23.6545 14.7174 23.283 14.5116C23.0707 14.3881 23.1901 14.237 23.1901 14.1136C23.1901 14.0861 23.2166 14.0449 23.2565 13.9901C23.283 13.9214 23.3626 13.8117 23.482 13.6881C23.482 13.6881 23.6545 13.4411 23.9067 13.4547C24.1588 13.4685 24.4241 13.4137 24.4905 13.345C24.4905 12.8647 23.9598 12.8509 24.1455 12.0274C24.1588 11.9862 24.2252 11.9175 24.4374 11.8901C24.119 11.8214 23.973 11.8077 23.7474 11.5882C23.5882 11.4373 23.4688 11.2451 23.429 10.9981C23.3494 10.5726 23.2167 8.33554 23.2167 8.33554Z" fill="#EFEFEF"/>
        <path d="M20.4168 7.4709C20.3371 7.361 19.9259 6.81207 19.143 6.59251C18.9174 6.52383 18.7714 6.71599 18.546 6.85328C18.4796 6.81207 18.1876 6.67486 18.0284 6.77086C17.8692 6.86686 17.7631 6.96302 17.6038 7.03162C17.5241 6.99041 17.3119 6.99041 17.1394 7.0591C16.9669 7.11397 16.7015 7.23744 16.4494 7.59429C16.2902 8.18451 19.2624 7.74524 19.2624 7.74524L20.4168 7.4709Z" fill="black"/>
        <path d="M20.4434 7.47105C20.0188 7.32002 20.0852 6.81222 19.1431 6.72988C18.9573 6.71614 18.8378 6.86709 18.7052 6.96317C18.7716 7.03186 18.8378 7.1416 18.8777 7.25133C18.7582 7.1142 18.5459 6.9357 18.3335 6.89449C18.1345 6.85344 18.0018 7.00439 17.7895 7.1142C17.8293 7.15525 17.8691 7.22394 17.9222 7.30636C17.7363 7.18281 17.6038 7.14168 17.3516 7.23768C17.1791 7.29255 16.8474 7.44358 16.5953 7.81416C16.4361 8.4043 19.2756 7.74548 19.2756 7.74548L20.4434 7.47105Z" fill="#88CE02"/>
        <path d="M22.938 7.69059C22.938 7.69059 22.938 7.53964 22.9247 7.40243C22.9247 7.37496 22.8186 7.30627 22.8186 7.27888L22.792 7.2514C22.792 7.2514 23.0043 7.12793 23.1636 7.19653C23.336 7.25148 23.4289 7.48478 23.4289 7.48478C23.7341 7.37504 23.7606 7.49851 23.9066 7.6632C24.2251 7.59451 24.2648 7.71807 24.4639 8.02005C24.4639 8.02005 24.2251 7.97884 23.7607 8.06118C23.3095 8.12971 22.938 7.67686 22.938 7.69059Z" fill="black"/>
        <path d="M22.8849 7.62186C22.8849 7.62186 22.9645 7.55318 22.9379 7.53944C23.0839 7.45701 23.2829 7.3611 23.3758 7.62186C23.681 7.51196 23.7208 7.66307 23.8668 7.82776C24.2383 7.64934 24.2647 7.86881 24.2914 7.96497C24.1719 7.96497 23.9995 7.97871 23.7606 8.00611C23.3095 8.07479 22.8716 7.60804 22.8849 7.62186Z" fill="#88CE02"/>
        <path d="M18.3734 7.27881C18.3734 7.27881 19.1297 7.55323 19.7667 7.51202C20.4036 7.45723 21.4917 7.40228 22.0754 7.75913C22.0754 7.75913 22.6725 7.5395 23.2299 7.69044C23.7872 7.84139 24.8089 8.8296 24.5038 9.87267C24.4772 9.94135 24.3047 10.0511 24.1057 10.1198C24.1057 10.1198 24.2119 10.5864 24.0261 10.9707C23.8403 11.3413 23.4289 12.055 23.4157 13.0432C23.4024 13.2079 23.3759 13.551 23.3493 13.7156C22.3143 13.6745 20.7221 13.2764 19.1564 13.3039C19.1696 13.1255 19.1829 13.0157 19.1962 12.8373H19.2359C19.1562 12.3843 19.1297 12.151 19.0501 11.8079C18.5459 11.4786 18.015 11.0942 17.564 10.3668C17.1261 9.63937 18.3734 7.27881 18.3734 7.27881ZM23.4953 14.6901C23.4953 14.6901 24.3179 17.7371 23.3493 19.0135C23.3493 19.0135 23.4953 19.6037 23.1636 20.235C23.1104 20.5094 23.044 20.7565 23.0043 21.031C22.8318 22.1701 22.5399 22.6504 22.4603 24.4758L21.6641 24.4622C21.6641 24.4622 21.5711 23.1446 21.2925 22.4446C21.1334 22.0466 20.5097 21.5113 20.5363 20.9761C20.5629 20.5644 20.6424 20.2213 21.3192 19.6722C21.3722 18.8762 20.6026 18.1213 20.7221 15.1568L23.4953 14.6901Z" fill="black"/>
        <path d="M23.2564 14.5666C23.4688 15.9665 23.9597 18.0389 23.0707 19.0546C23.1104 19.2467 23.137 19.5212 23.0839 19.8368C23.0574 20.0015 23.0042 20.1799 22.938 20.3721C22.8053 20.7014 22.7521 21.1818 22.7124 21.47C22.5399 22.6092 22.5399 22.6642 22.4603 24.4896L21.6641 24.4758C21.6641 24.4758 21.5711 23.1582 21.2925 22.4583C21.1334 22.0603 20.8016 21.7172 20.7751 21.1819C20.7485 20.7702 21.0272 19.9468 21.6907 19.9742C21.6509 18.3135 20.9078 18.6428 20.7088 15.1842L23.2564 14.5666ZM18.3734 7.27881C18.3734 7.27881 18.6653 7.37489 18.9838 7.40228C19.3022 7.42976 19.6473 7.40228 19.9524 7.38855C20.5893 7.33368 21.4916 7.26507 22.0887 7.62192C22.0887 7.62192 22.4204 7.51202 22.7788 7.5395C22.938 7.55323 23.0972 7.69044 23.283 7.74539C23.8668 7.89634 24.4241 8.8982 24.1719 9.80414C24.1453 9.87283 23.9596 9.80414 23.7473 9.87283C23.7871 10.0649 23.8137 10.5041 23.6014 10.9708C23.3758 11.4374 23.0839 12.0413 23.1369 13.1942C21.7437 13.1255 21.12 13.0295 19.74 12.9609C19.6206 12.453 19.541 11.9452 19.5277 11.6845C19.7135 11.5883 19.8196 11.5061 19.9657 11.3414C19.5676 11.41 19.4083 11.3826 19.1694 11.2452C18.9306 11.108 18.506 10.6688 18.2936 10.3806C18.2671 10.3532 18.1213 10.806 17.7896 10.8198C17.67 10.6414 18.1742 10.1335 18.0814 9.94143C17.7497 9.24139 18.3734 7.27881 18.3734 7.27881Z" fill="#EFEFEF"/>
        <path d="M23.3626 13.4275C23.3626 13.4275 23.3891 13.9215 23.3891 14.045C23.3891 14.1823 23.4954 14.5939 23.5086 14.7862C23.3626 15.0469 22.7258 15.6371 21.5713 15.8567C20.4301 16.1037 18.9175 14.2509 18.9175 14.2509C18.9573 14.0725 19.09 13.5509 19.1829 13.2764C19.1962 13.249 19.2227 13.1804 19.2227 13.153C19.3422 12.9745 23.3626 13.4275 23.3626 13.4275Z" fill="black"/>
        <path d="M23.0708 13.4688C23.0708 13.8118 23.1238 14.0589 23.1637 14.2785C23.23 14.6765 23.3361 14.9373 23.3361 15.198C23.3361 15.994 22.3276 15.8568 21.4783 15.8843C20.3372 16.1314 19.3687 14.2785 19.3687 14.2785C19.4482 13.9628 19.5013 13.606 19.6207 13.304C19.634 13.1394 19.6605 12.9335 19.6738 12.8374C21.2926 12.8374 22.4337 12.9336 23.0972 13.002C23.1238 13.153 23.0972 13.4138 23.0708 13.4687V13.4688Z" fill="#EFEFEF"/>
        <path d="M21.7969 15.2391C21.7969 15.2391 21.0936 13.6196 18.9837 14.1001C18.4796 15.5685 17.8028 17.2568 18.2408 19.0821C17.8028 19.6998 17.2986 20.0429 17.2986 21.182C17.2986 22.3212 17.3517 22.5133 17.3517 22.5133L18.9041 22.5958C18.9041 22.5958 19.4083 21.9233 19.6073 21.1958C19.6605 20.9899 19.7136 20.6194 19.6737 20.1939C19.7268 20.1116 19.9523 19.9195 19.979 19.5489C19.979 19.5489 20.7352 19.1372 21.1732 18.1352C21.5846 17.2292 21.4784 16.4469 21.7968 15.2391L21.7969 15.2391Z" fill="black"/>
        <path d="M21.7969 15.2392C21.757 15.0883 21.2262 13.606 19.2625 14.0451C18.108 17.2293 18.5327 18.5469 18.7052 19.1233C17.9222 20.1526 17.564 20.3722 17.7233 22.4584H18.7583C19.2359 21.6761 19.3421 21.3878 19.3686 20.3585C19.3686 20.3173 19.2227 20.4409 19.1165 20.5781C19.1962 20.1527 19.4217 20.0703 19.5942 19.8096C19.6738 19.6997 19.7402 19.5351 19.7402 19.3154C20.669 18.6704 21.014 17.8606 21.213 17.0234C21.3723 16.447 21.558 15.5 21.7968 15.2391L21.7969 15.2392Z" fill="#EFEFEF"/>
        <path d="M18.5194 13.0293C18.5194 13.0293 18.8777 13.043 19.1962 13.1529C19.5014 13.2626 19.5014 13.3312 19.6208 13.4685C19.7403 13.6059 20.0321 13.8116 19.9791 14.0175C19.9525 14.1273 19.8862 14.1547 19.7933 14.2508C19.7535 14.292 19.4615 14.6214 19.3953 14.6625C19.3554 14.69 19.3023 14.7312 19.2625 14.7587L19.0636 14.8959C18.9308 14.9646 18.8379 15.0057 18.692 14.992C18.692 14.992 18.3603 14.9782 18.1479 14.7449C18.1479 14.7449 18.1214 14.635 18.1745 14.5802C18.1745 14.5802 17.8958 14.3331 17.8162 14.1684C17.7365 14.0038 17.7365 13.7705 17.7896 13.647C17.8162 13.5234 18.3336 13.1802 18.5194 13.0293ZM18.8512 26.3835L18.8114 26.7267C18.8114 26.7267 18.692 26.8776 17.803 26.8639C16.9007 26.8501 16.6618 26.562 16.5822 26.411L16.5292 26.0541C16.5292 26.0541 16.7017 25.7933 16.7415 25.7933C17.0334 25.8208 18.0286 26.2325 18.7186 26.3423C18.7848 26.3423 18.7981 26.3697 18.8512 26.3835ZM20.7752 25.6835C20.7752 25.8345 20.7619 25.8345 20.7619 25.9855C20.9211 26.109 21.3193 26.1777 22.0755 26.1638C23.1768 26.1364 24.1986 26.507 25.4458 26.2873L25.4591 26.0403L25.3397 26.0266L20.9211 25.656L20.7752 25.6835Z" fill="black"/>
        <path d="M21.7437 26.164H22.0754C22.7921 26.1366 23.4688 26.3012 24.1985 26.3425C24.5833 26.3287 25.061 26.2326 25.0212 25.9444L21.2529 25.6149C21.0272 25.8757 21.1997 26.0953 21.7437 26.164ZM17.418 20.3859C17.5375 20.4683 18.3469 20.9623 19.6605 20.8937C19.6339 21.1544 19.6472 21.6623 19.0634 22.5543C18.7714 22.9935 18.5193 23.7622 18.4663 24.7366C18.4796 24.9563 18.5989 25.1484 18.4397 25.4366C18.4929 25.6149 18.7051 25.9719 18.8113 26.1914C18.9174 26.4111 18.9705 26.6581 18.2671 26.6718C17.5507 26.6856 16.3962 26.6031 16.5555 26.0268C16.6352 25.7248 16.8607 25.4092 16.8873 25.2857C16.9139 25.1621 16.9139 24.7916 17.1393 24.5445C17.3384 23.8583 17.2721 23.1995 17.2323 22.5819C17.1659 21.9367 17.1526 20.9075 17.418 20.3859V20.3859ZM18.6521 9.20024C19.5942 7.89632 18.798 6.85333 17.2854 7.16889C16.675 7.29244 16.0646 7.73171 16.0248 8.52767C15.8257 8.55515 15.3746 8.58254 15.149 9.43353C14.9766 10.0923 14.8837 10.2158 14.5785 10.5451C14.3794 10.7785 14.5918 11.2588 14.7377 11.6021C15.2286 12.7824 16.7413 12.8921 17.763 13.7842C18.108 13.6882 18.4663 13.2902 18.5724 13.0295C17.7099 11.9725 17.8957 11.5609 17.5507 11.0119C17.9222 10.8745 18.7714 10.3395 18.6521 9.20024Z" fill="black"/>
        <path d="M18.4663 9.11791C18.5193 9.03549 18.6123 8.85714 18.6521 8.78846C18.6654 8.77472 18.8113 9.03548 18.8246 9.02183C19.1828 8.41787 19.2757 7.53949 18.8644 7.45714C18.7714 7.4434 18.599 7.40227 18.4531 7.34724C18.1877 7.25124 17.9488 7.25124 17.5242 7.33359C16.9404 7.4434 16.3566 7.8826 16.3566 8.51395C16.3566 8.55516 16.7678 8.67864 16.8873 9.18652C16.6882 8.89819 16.3432 8.58256 15.9318 8.85706C15.494 9.14522 15.7196 9.80405 15.1357 10.4902C14.9367 10.7236 14.9632 10.9981 15.1756 11.5471C15.5205 12.4117 17.1526 12.8784 18.0417 13.7018C18.2539 13.6057 18.3999 13.3862 18.506 13.2215C17.9089 12.5764 17.6701 11.9725 17.4976 11.5333C17.2853 11.0255 17.0464 10.7374 16.582 10.3529C16.8209 10.4491 17.0067 10.5451 17.1128 10.6274C17.2321 10.7098 17.4046 10.7236 17.5639 10.6686C18.1346 10.4629 18.4398 9.63936 18.4663 9.11791H18.4663Z" fill="#EFEFEF"/>
        <path d="M24.2383 9.33734C24.1985 9.85888 23.827 9.59811 23.628 9.50203C23.2299 9.3236 22.8317 9.20013 22.3674 9.20013C21.9029 9.20013 21.3058 9.24134 20.7884 9.37855C20.0719 9.58437 19.8595 9.57071 19.541 9.40595C19.2227 9.22752 18.6654 8.78833 18.6654 8.78833C18.6654 8.78833 18.6521 8.92562 18.7848 9.10405C18.9572 9.3236 19.3421 9.59811 19.8595 9.77645C20.1117 9.85888 20.3107 9.80393 20.5363 9.74906C21.7173 9.44716 22.9645 9.39221 24.0128 10.051C24.0659 10.0784 24.2517 9.99601 24.3313 9.87253C24.4373 9.69419 24.2383 9.33734 24.2383 9.33734Z" fill="black"/>
        <path d="M18.2009 14.5667C18.3071 14.6353 18.4398 14.6765 18.5857 14.8C18.5857 14.8 18.4663 14.8 18.4133 14.7452C18.3469 14.7039 18.2142 14.5805 18.2009 14.5667Z" fill="#001423"/>
        <path d="M22.0357 3.68271C21.9958 3.55924 21.7039 3.3396 21.0272 3.3396C20.2974 3.3396 20.085 3.57289 20.0719 3.69645C20.0719 3.73766 20.0188 4.17685 20.0055 4.3552C20.0055 4.3552 20.0055 4.57483 20.0188 4.90421C20.0321 5.12376 20.0851 5.24732 20.1116 5.53556C20.1381 5.83738 20.2178 6.02962 20.3637 6.27665C20.4301 6.31778 20.4831 6.35907 20.5495 6.37281C20.8149 6.4276 21.2793 6.44134 21.5314 6.37281C21.6774 6.3316 21.8631 6.07083 21.9029 5.83746C21.956 5.5493 22.0091 5.3434 22.0224 5.16497C22.0489 4.98663 22.0622 4.58857 22.0754 4.47875C22.1153 4.17685 22.0489 3.71019 22.0356 3.68279L22.0357 3.68271Z" fill="#EFEFEF"/>
        <path d="M20.6424 20.6467C20.6424 20.6467 21.3458 20.9624 23.084 20.6879C23.084 20.6879 22.5931 23.2407 22.8187 24.517C22.8187 24.517 23.0442 24.8465 24.7161 25.4778C24.7161 25.4778 25.4591 25.6699 25.4327 26.0542C25.4327 26.0542 25.4592 26.1367 24.5569 26.1091C23.6547 26.0816 22.8053 25.9169 22.2083 25.9169C21.6112 25.9169 20.9742 25.9444 20.8681 25.766C20.7487 25.6013 20.8947 25.1758 21.0671 24.9287C21.2531 24.6681 21.1998 24.4758 21.1866 24.0092C21.1466 22.7877 20.2444 21.5251 20.6424 20.6467Z" fill="black"/>
        <path d="M20.4965 20.8801C20.4035 21.0174 20.5097 21.5389 20.6424 22.0467C20.7751 22.5544 21.067 22.8564 21.1333 23.6936C21.1998 24.517 21.213 24.6269 20.9874 25.1073C20.7618 25.5875 20.6955 26.0269 21.4783 26.0406C22.2611 26.0543 22.6858 26.0269 23.4819 26.1504C24.2781 26.2739 24.5568 26.315 24.9947 26.2465C25.4326 26.1778 25.5254 26.0268 25.3397 25.8896C25.1539 25.7523 24.3842 25.6014 24.0526 25.3268C23.7341 25.0798 22.8318 24.6681 22.8186 24.5583C22.7787 24.1877 22.7655 22.8427 22.8319 22.4035C22.8982 21.9642 22.991 21.333 23.0176 21.1683C23.0441 21.0036 23.1768 20.8388 22.9512 20.8938C22.7257 20.9486 21.8765 21.0722 21.2395 21.031C20.6026 20.9898 20.5364 20.8389 20.4965 20.8801Z" fill="#88CE02"/>
        <path opacity="0.3" d="M20.9477 25.1211C21.1732 25.2308 21.505 25.3132 21.7571 25.3132C21.7571 25.3132 21.6641 25.7662 21.8102 26.0406C21.956 26.3151 20.7486 26.1505 20.7486 26.1505L20.6956 25.1759L20.9477 25.121V25.1211ZM24.464 26.3013C24.6763 26.2327 24.8223 25.9857 24.6498 25.7524C24.464 25.519 24.3048 25.4779 24.5435 25.4642C24.7824 25.4504 25.6582 25.9994 25.6582 25.9994L25.207 26.4249L24.464 26.3013ZM20.4567 21.4153C20.7619 21.5252 21.2263 21.5526 21.6244 21.5388C22.0224 21.5251 22.6196 21.4702 23.0044 21.3329C23.3892 21.1957 23.2299 21.4839 23.2299 21.4839L23.0176 21.6898C23.0176 21.6898 22.5135 21.8957 21.6908 21.882C20.7221 21.8683 20.4302 21.7585 20.4302 21.7585L20.4567 21.4153H20.4567ZM20.4832 22.1016C20.7885 22.2115 21.2528 22.2389 21.6509 22.2251C22.0489 22.2114 22.5798 22.2114 22.9646 22.0605C23.1238 22.0055 23.031 22.2389 23.031 22.2389L22.9646 22.3624C22.9646 22.3624 22.4471 22.5545 21.6376 22.5407C20.669 22.527 20.4965 22.4446 20.4965 22.4446L20.4832 22.1016Z" fill="black"/>
        <path d="M19.6074 12.4805C19.6074 12.5766 20.6424 13.1117 21.213 13.2216C21.7836 13.3314 22.9778 13.2216 23.1635 13.1804L23.137 13.3726C23.137 13.3726 21.7172 13.5922 20.6291 13.2902C19.5411 12.9883 19.6605 12.9197 19.6605 12.9197L19.6074 12.4805Z" fill="black"/>
        <path d="M17.3915 24.1877C17.5507 24.2701 18.1213 24.421 18.4928 24.3386C18.5459 24.3249 18.4928 23.3916 18.6388 22.9662C18.8511 22.376 19.1961 21.8957 19.3552 20.8526C18.798 20.7976 18.1611 20.6467 17.8293 20.5369C17.4048 21.8819 17.5508 23.0348 17.3915 24.1877ZM18.2806 25.0523C18.3735 25.0798 18.4398 25.1896 18.4664 25.121C18.5194 24.9974 18.3734 24.7642 18.3602 24.5995V24.5858C18.2408 24.476 17.4314 24.4623 17.4845 24.5171C17.3916 24.6955 17.2456 24.6681 17.1926 25.0249C17.1661 25.2033 17.3784 25.0524 17.5773 25.0387C17.2191 25.2856 16.8078 25.6014 16.7414 25.8759C16.6618 26.2601 16.7945 26.37 17.1926 26.5759C17.5377 26.6582 17.9489 26.672 18.2673 26.6582C18.6256 26.5896 18.692 26.4112 18.5859 26.1641C18.4265 25.7935 18.3204 25.3132 18.2806 25.0523Z" fill="#EFEFEF"/>
        <path d="M18.4266 7.22388C18.8644 7.48464 19.4749 7.41604 19.7004 7.4023C19.7535 7.4023 20.2843 7.30622 20.3108 7.31988C20.3639 7.33361 20.3639 7.37483 20.3639 7.37483C20.3639 7.37483 20.1648 7.48456 19.7137 7.51204C19.289 7.53943 18.7848 7.51204 18.5062 7.37483C18.1744 7.22388 18.4266 7.22388 18.4266 7.22388ZM22.9381 7.48464C23.0176 7.53951 23.5352 7.74541 23.7608 7.99244C23.9598 8.21208 23.8537 8.19834 23.8138 8.14347C23.7608 8.07479 23.3494 7.78654 23.1902 7.71802C23.031 7.64933 22.8319 7.52586 22.8319 7.49838C22.8319 7.47091 22.9381 7.48464 22.9381 7.48464Z" fill="black"/>
        <path d="M18.3601 13.1803C18.7449 13.1528 19.1429 13.249 19.3951 13.5234C19.5278 13.6607 19.7401 13.8116 19.7135 13.9489C19.7135 13.9901 19.6339 14.0999 19.5677 14.1822C19.5278 14.237 19.4085 14.3606 19.3685 14.4018C19.3156 14.443 19.1297 14.5939 19.0899 14.6214C19.0501 14.6489 18.997 14.7176 18.9572 14.7312C18.8246 14.7999 18.6786 14.745 18.546 14.6764C18.4133 14.6077 18.5725 14.5939 18.4265 14.4842C18.0683 14.2234 17.8692 14.0449 18.0152 13.5371C18.0285 13.4411 18.1743 13.3312 18.3601 13.1803Z" fill="#EFEFEF"/>
        <path opacity="0.4" d="M14.9765 10.0375C13.7823 10.5315 10.7437 12.0962 9.88123 12.5766C10.5977 13.0432 10.9294 14.1686 11.0357 15.3078C11.0489 15.4177 11.0622 15.5137 11.0754 15.6234C11.0887 15.7196 11.102 15.7881 11.1152 15.8294C11.1152 15.8431 11.1152 15.8706 11.1285 15.8842C11.9114 13.6746 14.7111 11.3413 14.8172 11.1629C14.8704 11.0806 14.7508 10.7237 14.9367 10.3807C15.1756 9.94141 15.6401 9.74916 14.9765 10.0375ZM17.8161 20.3997C18.4265 19.137 18.4397 17.9292 18.4265 16.5155C18.4265 15.9253 18.8378 15.0882 18.6255 15.3214C17.8294 16.241 15.8258 17.9703 14.3794 18.0664C16.4096 17.9977 17.2058 19.0546 17.8161 20.3997Z" fill="black"/>
        <path d="M8.7135 13.7431C9.46983 13.1804 13.3842 11.0256 14.3264 10.7237C15.2684 10.4079 14.9765 10.0374 14.9765 10.0374C14.9765 10.0374 11.155 11.7392 8.87272 13.2078" fill="black"/>
        <path opacity="0.4" d="M19.8595 9.77671C19.5543 9.65316 19.3155 10.0237 19.3951 10.3806C19.4748 10.7374 20.1912 11.1354 20.1513 12.4393C20.1249 13.5099 19.8993 13.949 19.8993 13.949L19.3951 13.2903C19.3951 13.2903 19.3154 11.808 19.143 11.5884C18.9705 11.3688 18.4264 10.9707 18.2141 10.7649C18.0018 10.559 18.4529 10.2845 18.4264 9.90027C18.3999 9.52968 18.6521 8.78851 18.6521 8.78851L19.8595 9.77671ZM21.7038 15.6234C21.6774 16.6527 21.9031 18.1762 21.9958 18.9037C22.0888 19.631 22.2081 19.686 21.9958 20.0154C21.7835 20.3311 21.5049 20.8526 21.5049 20.8526L20.5892 20.7702C20.5892 20.7702 21.3191 19.8094 21.3588 19.631C21.3986 19.4527 20.9873 18.094 20.9873 18.094L21.7039 15.6234H21.7038ZM19.9392 6.01615C20.1249 6.44152 20.3505 6.63368 20.7087 6.75724C20.921 6.83966 21.757 6.9494 22.0887 6.56508C22.2346 6.38665 22.1418 5.90625 22.1418 5.90625L21.3854 6.5376L20.3637 6.34544L20.2443 6.02981L19.9392 6.01615Z" fill="black"/>
        <path d="M20.0187 6.96313C20.3637 7.19643 21.2262 7.41606 21.465 7.4572C21.7038 7.51206 22.0887 7.19643 22.2744 7.11408C22.4735 7.018 22.8185 6.96313 23.2166 7.33372C23.2564 7.37493 23.1236 7.55328 23.1236 7.55328C23.1103 7.53954 23.0308 7.53954 22.9246 7.48459C22.8185 7.4298 22.7256 7.38851 22.5663 7.40233C21.9028 7.48459 21.7967 7.71796 21.2129 7.58067C20.6291 7.4433 20.4831 7.33364 19.9126 7.36103" fill="#88CE02"/>
        <path d="M20.0187 6.96313C20.3637 7.19643 21.2262 7.41606 21.465 7.4572C21.7038 7.51206 22.0887 7.19643 22.2744 7.11408C22.4735 7.018 22.8185 6.96313 23.2166 7.33372C23.2564 7.37493 23.1236 7.55328 23.1236 7.55328C23.1103 7.53954 23.0308 7.53954 22.9246 7.48459C22.8185 7.4298 22.7256 7.38851 22.5663 7.40233C21.9028 7.48459 21.7967 7.71796 21.2129 7.58067C20.6291 7.4433 20.4831 7.33364 19.9126 7.36103" stroke="black" stroke-width="1.586" stroke-linejoin="round"/>
        <path d="M19.8993 7.00439C20.3372 7.19656 21.1864 7.40246 21.4253 7.45732C21.664 7.51227 22.0489 7.26516 22.2346 7.14169C22.5664 6.92205 22.991 7.10048 23.1901 7.33385C23.3227 7.48472 23.3759 7.58088 23.3759 7.62201C23.3759 7.67688 23.2167 7.62201 23.2167 7.62201C23.1237 7.5808 23.0175 7.56714 22.938 7.51211C22.8318 7.45732 22.7257 7.37498 22.5665 7.38864C21.903 7.47106 21.7703 7.70435 21.1998 7.56706C20.6293 7.42985 20.4832 7.30629 19.8729 7.34742" fill="#88CE02"/>
        <path d="M17.8427 19.8232C17.8161 19.7957 17.8693 19.7683 17.8427 19.7683C17.6703 19.7683 17.4314 19.6311 17.2986 19.4389C16.7281 18.588 15.8921 18.0253 14.3794 18.0664C12.1104 18.1214 11.2081 17.1607 11.0357 15.3216C10.9427 14.3197 10.6774 13.3452 10.1333 12.7961L9.81482 13.002C10.4252 13.5511 10.6243 14.4432 10.757 15.6647C10.9693 17.5038 12.4023 18.3548 14.0742 18.3822C15.8125 18.4096 16.4361 18.7802 17.0863 19.6861C17.2986 19.9742 17.5375 20.0703 17.7232 20.1115L17.8427 19.8232Z" fill="black"/>
        <path opacity="0.4" d="M23.9995 10.9983C24.0394 11.2041 24.1455 11.6022 24.3577 11.7943C24.4507 11.8903 24.464 11.9177 24.3843 11.9177C24.3046 11.9177 23.7209 11.8903 23.7209 11.8903L23.5616 11.6022L23.9995 10.9983Z" fill="black"/>
    </g>
    <defs>
        <clipPath id="clip0_83_229">
            <rect width="20" height="24" fill="white" transform="translate(6 3)"/>
        </clipPath>
    </defs>
</svg>
