<svg viewBox="0 0 31 30" preserveAspectRatio="none">
    <path fill-rule="evenodd" clip-rule="evenodd" d="M15.8427 1.875C18.4385 1.875 20.9761 2.64477 23.1345 4.08696C25.2929 5.52915 26.9752 7.579 27.9686 9.97728C28.962 12.3756 29.2219 15.0146 28.7155 17.5606C28.209 20.1066 26.959 22.4452 25.1234 24.2808C23.2879 26.1163 20.9492 27.3664 18.4032 27.8728C15.8572 28.3792 13.2182 28.1193 10.8199 27.1259C8.42165 26.1325 6.37181 24.4503 4.92961 22.2919C3.48742 20.1335 2.71765 17.5959 2.71765 15C2.71765 11.519 4.10046 8.18064 6.56187 5.71922C9.02329 3.25781 12.3617 1.875 15.8427 1.875Z" fill="#CC6699"/>
    <path d="M24.0758 7.49254C23.4814 5.16192 19.6161 4.39879 15.958 5.69442C13.667 6.46424 11.5504 7.67835 9.72921 9.26723C7.71452 11.1516 7.39296 12.7922 7.52515 13.4775C7.9939 15.8963 11.3061 17.4769 12.6683 18.6497V18.6563C12.267 18.8541 9.32702 20.3438 8.63702 21.8625C7.9114 23.4675 8.75234 24.6188 9.31015 24.7735C10.1476 24.9751 11.0272 24.9095 11.8255 24.5858C12.6238 24.2622 13.3008 23.6967 13.7614 22.9688C14.1421 22.379 14.3802 21.7087 14.457 21.011C14.5338 20.3133 14.4472 19.6072 14.2039 18.9488C14.86 18.7821 15.5421 18.7429 16.213 18.8335C18.5155 19.1025 18.9673 20.5397 18.8811 21.1416C18.8405 21.3558 18.7543 21.5588 18.6283 21.7368C18.5023 21.9147 18.3394 22.0635 18.1508 22.1729C17.9895 22.2732 17.9398 22.3069 17.9539 22.3819C17.9736 22.4897 18.0476 22.486 18.1855 22.4625C18.5315 22.3536 18.8363 22.1423 19.0599 21.8567C19.2835 21.571 19.4153 21.2243 19.438 20.8622C19.4933 19.456 18.1423 17.8754 15.7498 17.9157C15.055 17.8958 14.3616 17.9909 13.6976 18.1969C13.6644 18.159 13.6307 18.1214 13.5964 18.0844C12.117 16.5066 9.38327 15.39 9.49859 13.2685C9.54077 12.4969 9.8089 10.4663 14.7486 8.00254C18.7986 5.9841 22.0405 6.54004 22.6011 7.77098C23.4017 9.52973 20.8686 12.7969 16.663 13.2685C16.1981 13.3628 15.718 13.3513 15.2582 13.2348C14.7984 13.1183 14.3708 12.8997 14.007 12.5954C13.7858 12.3516 13.753 12.3413 13.6705 12.3863C13.5364 12.4604 13.6217 12.676 13.6705 12.8035C13.8315 13.0937 14.0489 13.3489 14.3098 13.554C14.5708 13.759 14.8701 13.91 15.1901 13.9979C16.8437 14.3571 18.5684 14.1866 20.1195 13.5104C22.6705 12.5269 24.6598 9.78473 24.0758 7.49254ZM13.2345 19.3716C13.4207 20.0135 13.4113 20.6964 13.2073 21.3329C13.1855 21.3991 13.1614 21.4647 13.1351 21.5297C13.1089 21.5947 13.0805 21.6572 13.0498 21.7172C12.8921 22.04 12.6877 22.3379 12.4433 22.6013C11.6811 23.4329 10.6151 23.7479 10.1586 23.4825C9.66546 23.1966 9.91202 22.0238 10.7961 21.0891C11.4754 20.4174 12.2586 19.8596 13.1155 19.4372L13.2345 19.3716Z" fill="white"/>
</svg>
