<svg viewBox="0 0 31 30" preserveAspectRatio="none">
    <path d="M15.8427 28.1249C15.4886 28.125 15.1406 28.0319 14.8339 27.8549L11.6239 25.9546C11.1449 25.6864 11.3783 25.5918 11.5367 25.5364C12.0463 25.379 12.5341 25.1586 12.9889 24.8802C13.027 24.8626 13.0689 24.855 13.1108 24.8581C13.1526 24.8612 13.193 24.8749 13.228 24.898L15.6946 26.3633C15.7405 26.3876 15.7917 26.4003 15.8436 26.4003C15.8956 26.4003 15.9468 26.3876 15.9927 26.3633L25.6114 20.8114C25.6564 20.7845 25.6937 20.7463 25.7195 20.7006C25.7453 20.6549 25.7588 20.6033 25.7586 20.5508V9.44519C25.7587 9.39189 25.745 9.33948 25.7188 9.29301C25.6927 9.24654 25.6551 9.20758 25.6096 9.17988L15.9908 3.63269C15.9454 3.60715 15.8943 3.59373 15.8422 3.59373C15.7902 3.59373 15.739 3.60715 15.6936 3.63269L6.08049 9.18175C6.03464 9.20887 5.99657 9.24737 5.96996 9.29353C5.94335 9.33968 5.92911 9.39192 5.92862 9.44519V20.5461C5.92875 20.5985 5.9428 20.6499 5.96932 20.695C5.99584 20.7401 6.03389 20.7774 6.07956 20.803L8.71768 22.3255C10.1474 23.0399 11.023 22.198 11.023 21.3524V10.3921C11.023 10.3175 11.0526 10.2459 11.1054 10.1932C11.1581 10.1404 11.2297 10.1108 11.3042 10.1108H12.523C12.5976 10.1108 12.6691 10.1404 12.7219 10.1932C12.7746 10.2459 12.8042 10.3175 12.8042 10.3921V21.3533C12.8042 23.2611 11.7655 24.3533 9.95612 24.3533C9.17554 24.3669 8.40719 24.1582 7.74081 23.7514L5.21237 22.3011C4.90542 22.1224 4.65073 21.8662 4.47372 21.5583C4.29671 21.2503 4.20358 20.9013 4.20362 20.5461V9.44519C4.20271 9.08944 4.29545 8.73971 4.47252 8.43115C4.64959 8.1226 4.90475 7.86608 5.21237 7.68738L14.8321 2.13363C15.1419 1.9641 15.4895 1.87524 15.8427 1.87524C16.1959 1.87524 16.5434 1.9641 16.8533 2.13363L26.4721 7.68738C26.779 7.86578 27.0337 8.12155 27.2109 8.42918C27.3881 8.7368 27.4815 9.08551 27.4817 9.4405V20.5461C27.4812 20.9013 27.3877 21.2502 27.2106 21.5581C27.0335 21.866 26.7789 22.1221 26.4721 22.3011L16.8533 27.8549C16.546 28.0322 16.1974 28.1253 15.8427 28.1249Z" fill="#83CD29"/>
    <path d="M14.0183 16.831C14.0183 16.7564 14.0479 16.6849 14.1007 16.6321C14.1534 16.5794 14.225 16.5497 14.2996 16.5497H15.5436C15.6101 16.55 15.6743 16.5737 15.725 16.6168C15.7756 16.6599 15.8093 16.7195 15.8202 16.785C16.0077 18.0516 16.5702 18.69 19.1136 18.69C21.1396 18.69 22.003 18.2316 22.003 17.1563C22.003 16.5366 21.7583 16.0763 18.6092 15.7679C15.9767 15.5072 14.3492 14.9241 14.3492 12.8204C14.3492 10.8797 15.9852 9.72192 18.7274 9.72192C21.8089 9.72192 23.3342 10.7916 23.5274 13.0866C23.5303 13.1249 23.5254 13.1634 23.5129 13.1998C23.5004 13.2361 23.4805 13.2695 23.4546 13.2979C23.4287 13.3262 23.3973 13.349 23.3622 13.3648C23.3271 13.3805 23.2892 13.3889 23.2508 13.3894H21.9983C21.9355 13.3885 21.8747 13.3666 21.8258 13.3272C21.7769 13.2878 21.7425 13.2331 21.7283 13.1719C21.4292 11.8397 20.6971 11.4141 18.7283 11.4141C16.5158 11.4141 16.2589 12.1847 16.2589 12.7622C16.2589 13.4616 16.5627 13.666 19.5496 14.0607C22.5055 14.4516 23.9099 15.0047 23.9099 17.0822C23.9099 19.1785 22.1624 20.3785 19.1146 20.3785C14.9005 20.3841 14.0183 18.4519 14.0183 16.831Z" fill="#83CD29"/>
</svg>
