<svg viewBox="0 0 31 30" preserveAspectRatio="none">
    <path d="M2.71765 1.875H28.9677V28.125H2.71765V1.875Z" fill="#F5DE19"/>
    <path d="M20.3511 22.3828C20.5748 22.8371 20.9222 23.2189 21.3535 23.4843C21.7848 23.7497 22.2822 23.8878 22.7886 23.8828C23.8105 23.8828 24.4639 23.3718 24.4639 22.664C24.4639 21.8203 23.7927 21.5184 22.6677 21.0262L22.0508 20.7618C20.2695 20.0034 19.0883 19.0537 19.0883 17.0456C19.0883 15.1959 20.4945 13.7868 22.7005 13.7868C23.4146 13.7352 24.128 13.8951 24.7519 14.2463C25.3758 14.5976 25.8824 15.1248 26.2086 15.7621L24.2802 16.9949C24.1545 16.6789 23.9358 16.4086 23.6531 16.2197C23.3703 16.0308 23.0367 15.9324 22.6967 15.9374C22.5484 15.9226 22.3986 15.9388 22.2568 15.9851C22.1151 16.0313 21.9845 16.1066 21.8735 16.2061C21.7624 16.3055 21.6733 16.4271 21.6119 16.5629C21.5504 16.6987 21.5179 16.8459 21.5164 16.9949C21.5164 17.7346 21.9748 18.0346 23.0333 18.4949L23.6502 18.7593C25.7464 19.6584 26.9314 20.5743 26.9314 22.634C26.9314 24.8549 25.1867 26.0718 22.8439 26.0718C21.9311 26.13 21.0209 25.9227 20.2232 25.4751C19.4256 25.0274 18.7745 24.3585 18.3486 23.549L20.3511 22.3828ZM11.637 22.5965C12.0242 23.2837 12.3767 23.8649 13.2242 23.8649C14.0342 23.8649 14.5461 23.5481 14.5461 22.3153V13.9274H17.0127V22.3481C17.0127 24.9018 15.5127 26.0643 13.3292 26.0643C12.5574 26.1065 11.7909 25.9142 11.1305 25.5126C10.47 25.111 9.94658 24.519 9.62891 23.8143L11.637 22.5965Z" fill="black"/>
</svg>
