<svg viewBox="0 0 31 30" preserveAspectRatio="none">
    <path fill-rule="evenodd" clip-rule="evenodd" d="M6.3739 17.6691C6.04873 18.4502 5.86707 19.2835 5.83765 20.1291C5.88252 20.6506 6.06037 21.1518 6.35421 21.585C6.90712 22.2251 7.57204 22.7592 8.3164 23.1609L13.1239 26.3616C13.7155 26.8324 14.3806 27.2023 15.0926 27.4566C15.5549 27.5666 16.0366 27.5666 16.4989 27.4566C17.2157 27.2054 17.8862 26.838 18.4836 26.3691L23.3426 23.1666C24.0946 22.7636 24.7671 22.2274 25.3273 21.5841C25.6233 21.1486 25.801 20.6436 25.843 20.1188C25.811 19.2663 25.6246 18.4268 25.2926 17.6409L21.043 4.26657C20.9481 3.83343 20.7767 3.4207 20.5367 3.04782C20.362 2.83547 20.1361 2.67096 19.8805 2.5697C19.4532 2.45386 19.0088 2.41513 18.568 2.45532H13.0348C12.5938 2.41523 12.1492 2.45493 11.7223 2.57251C11.466 2.67357 11.24 2.83887 11.0661 3.05251C10.8272 3.42541 10.6573 3.83823 10.5645 4.27126L6.3739 17.6691ZM18.7864 5.29407C18.9841 5.60832 19.1241 5.95532 19.1998 6.31876L22.8486 18.3038C21.4781 17.5929 20.0071 17.0956 18.4864 16.8291L16.1155 8.80407C16.1009 8.75667 16.0752 8.71345 16.0405 8.67804C16.0057 8.64263 15.963 8.61605 15.9159 8.60053C15.8688 8.58502 15.8187 8.58102 15.7697 8.58886C15.7208 8.59671 15.6744 8.61618 15.6345 8.64563C15.581 8.6848 15.5418 8.74046 15.523 8.80407L13.1792 16.8263C11.6514 17.0922 10.1735 17.5915 8.79733 18.3066L12.4611 6.32157C12.5361 5.95746 12.6765 5.60997 12.8755 5.29595C13.0206 5.11786 13.2082 4.97921 13.4211 4.89282C13.7797 4.79589 14.1528 4.76413 14.5226 4.79907H17.1411C17.5112 4.7641 17.8847 4.79585 18.2436 4.89282C18.4571 4.97946 18.6451 5.1188 18.7901 5.29782L18.7864 5.29407ZM15.9617 19.7438C17.09 19.8091 18.2089 19.5053 19.1492 18.8784C19.2561 19.2149 19.294 19.5695 19.2607 19.921C19.2273 20.2725 19.1234 20.6137 18.9551 20.9241C18.6093 21.512 18.1073 21.9926 17.5048 22.3125C16.873 22.7138 16.3292 23.0625 16.3292 23.9878C16.3284 24.2846 16.3954 24.5777 16.5251 24.8447C16.099 24.6677 15.7349 24.3685 15.4788 23.9847C15.2227 23.6009 15.086 23.1498 15.0861 22.6884V22.6313C15.0861 21.9909 15.0861 21.2025 14.1842 21.2025C14.0585 21.2024 13.934 21.227 13.8176 21.2747C13.5836 21.3716 13.3975 21.5574 13.3001 21.7913C13.2518 21.9075 13.2266 22.032 13.2261 22.1578C12.6079 21.4827 12.2759 20.5941 12.2998 19.6791C12.2955 19.283 12.3508 18.8886 12.4639 18.5091C12.8389 19.2188 14.2639 19.7466 15.9617 19.7466V19.7438Z" fill="#FF5D01"/>
</svg>
