<svg width="24" height="24" viewBox="0 0 24 24" fill="none"
    xmlns="http://www.w3.org/2000/svg">
    <path d="M12.0024 18.0084C8.6892 18.0084 5.994 15.3132 5.994 12C5.994 8.6868 8.6892 5.9916 12.0024 5.9916C15.3156 5.9916 18.0108 8.6868 18.0108 12C18.0108 15.3132 15.3156 18.0084 12.0024 18.0084Z"/>
    <path d="M13.2 20.4H10.8V24H13.2V20.4Z"/>
    <path d="M13.2 0H10.8V3.6H13.2V0Z"/>
    <path d="M3.6 10.8H0V13.2H3.6V10.8Z"/>
    <path d="M24 10.8H20.4V13.2H24V10.8Z"/>
    <path d="M5.2092 17.0892L2.6652 19.6356L4.3632 21.3324L6.9072 18.786L5.2092 17.0892Z"/>
    <path d="M19.6368 2.6664L17.0904 5.2128L18.7872 6.9096L21.3336 4.3632L19.6368 2.6664Z"/>
    <path d="M2.6664 4.3644L5.2128 6.9108L6.9084 5.214L4.3644 2.6676L2.6664 4.3644Z"/>
    <path d="M19.6368 21.3336L21.3336 19.6368L18.7872 17.0904L17.0904 18.7872L19.6368 21.3336Z"/>
</svg>
