<svg viewBox="0 0 30 30" preserveAspectRatio="none">
    <path d="M25.9489 19.0639C26.1982 18.4699 25.4857 17.9639 24.888 18.2279C23.6933 18.7523 22.4025 19.022 21.0978 19.0199C15.9828 19.0199 11.837 14.9573 11.837 9.94494C11.8351 8.25259 12.3159 6.5948 13.223 5.16607C13.5701 4.61851 13.1533 3.86074 12.5178 4.02207C7.61781 5.2724 4 9.63817 4 14.8314C4 20.9999 9.10283 26 15.3986 26C20.1653 26 24.2475 23.1339 25.9489 19.0639Z" />
    <path d="M19.1572 4.13054C18.4842 3.68099 17.6817 4.48358 18.1299 5.15664L18.9299 6.35672C19.2544 6.84331 19.4276 7.4151 19.4276 8C19.4276 8.5849 19.2544 9.15669 18.9299 9.64328L18.1299 10.8434C17.6817 11.5164 18.4855 12.319 19.1585 11.8695L20.3572 11.0694C20.8437 10.7449 21.4155 10.5717 22.0003 10.5717C22.5852 10.5717 23.1569 10.7449 23.6435 11.0694L24.8435 11.8695C25.5165 12.319 26.319 11.5164 25.8695 10.8434L25.0695 9.64328C24.745 9.15669 24.5718 8.5849 24.5718 8C24.5718 7.4151 24.745 6.84331 25.0695 6.35672L25.8695 5.15664C26.319 4.48358 25.5165 3.68099 24.8422 4.13054L23.6435 4.93059C23.1569 5.25514 22.5852 5.42834 22.0003 5.42834C21.4155 5.42834 20.8437 5.25514 20.3572 4.93059L19.1572 4.13054Z"/>
</svg>
